#!OML:ASF E:\Style4\Style4.ASF
:FULLY-SPECIFIED
:DEGREES
3987
root 0.914686 18.146 -0.147616 18.7727 1.22591 4.50561
lowerback 11.1473 1.9447 0.662244
upperback -0.597575 2.62943 -0.649148
thorax -6.82821 1.24827 -1.49817
lowerneck 2.29121 -2.99049 -4.58506
upperneck -18.6422 -3.74777 4.38277
head -5.81829 -1.82951 2.35733
rclavicle 5.12864e-014 -4.77083e-015
rhumerus -43.3581 13.0774 -93.429
rradius 53.5332
rwrist 8.03456
rhand -2.49536 -2.25455
rfingers 7.12502
rthumb 23.1982 -30.8775
lclavicle 5.12864e-014 -4.77083e-015
lhumerus -42.7463 -21.5049 96.6443
lradius 49.755
lwrist 13.6276
lhand -4.76791 31.5034
lfingers 7.12502
lthumb 21.0164 60.3847
rfemur -28.185 5.86753 10.0637
rtibia 26.9382
rfoot -16.523 -19.3438
rtoes -9.75299
lfemur -24.9712 -5.38048 -25.9846
ltibia 19.8326
lfoot -13.8377 11.8172
ltoes -13.3238
3988
root 0.913907 18.1458 -0.130871 18.5819 1.21505 4.43107
lowerback 10.9668 1.97297 0.710149
upperback -0.642949 2.67389 -0.637643
thorax -6.77126 1.26932 -1.51393
lowerneck 2.1951 -3.01232 -4.44402
upperneck -18.5606 -3.77382 4.31244
head -5.77952 -1.84639 2.30927
rclavicle 3.61788e-014 -8.74653e-015
rhumerus -43.3706 12.9363 -93.3904
rradius 53.3704
rwrist 8.00463
rhand -2.49082 -2.27235
rfingers 7.12502
rthumb 23.2026 -30.8947
lclavicle 3.61788e-014 -8.74653e-015
lhumerus -42.8115 -21.5768 96.6977
lradius 49.6438
lwrist 13.8269
lhand -4.73953 31.4655
lfingers 7.12502
lthumb 21.0437 60.3437
rfemur -27.8928 5.90057 10.1857
rtibia 26.894
rfoot -16.5814 -19.296
rtoes -9.47726
lfemur -24.6774 -5.36539 -25.9182
ltibia 19.7988
lfoot -13.9203 11.8077
ltoes -12.8484
3989
root 0.913301 18.1461 -0.114812 18.3275 1.2738 4.39063
lowerback 10.8609 1.95146 0.72047
upperback -0.684591 2.64885 -0.603667
thorax -6.75736 1.25756 -1.47661
lowerneck 2.17576 -3.00988 -4.34825
upperneck -18.5557 -3.77105 4.25371
head -5.7782 -1.84701 2.27422
rclavicle -1.19271e-014 2.38542e-015
rhumerus -43.423 12.8816 -93.382
rradius 53.2087
rwrist 7.92558
rhand -2.51649 -2.33154
rfingers 7.12502
rthumb 23.1779 -30.957
lclavicle -1.19271e-014 2.38542e-015
lhumerus -42.9486 -21.5921 96.7732
lradius 49.5779
lwrist 13.948
lhand -4.74219 31.4236
lfingers 7.12502
lthumb 21.0411 60.3021
rfemur -27.4908 5.83371 10.3193
rtibia 26.8233
rfoot -16.5982 -19.2432
rtoes -9.50737
lfemur -24.3096 -5.33654 -25.8892
ltibia 19.7613
lfoot -13.9944 11.7027
ltoes -12.2996
3990
root 0.911127 18.1467 -0.0973894 18.0815 1.31979 4.37115
lowerback 10.7377 1.92752 0.72607
upperback -0.728128 2.6189 -0.583959
thorax -6.73522 1.24341 -1.45024
lowerneck 2.13494 -3.01388 -4.33795
upperneck -18.4955 -3.77776 4.2333
head -5.75274 -1.84953 2.26429
rclavicle 7.15625e-015 -2.38542e-015
rhumerus -43.4662 12.8355 -93.373
rradius 53.0757
rwrist 7.73916
rhand -2.48927 -2.45538
rfingers 7.12502
rthumb 23.2041 -31.0776
lclavicle 7.15625e-015 -2.38542e-015
lhumerus -43.0889 -21.6507 96.858
lradius 49.5502
lwrist 14.0399
lhand -4.76062 31.5631
lfingers 7.12502
lthumb 21.0234 60.4436
rfemur -27.0794 5.82743 10.4159
rtibia 26.7246
rfoot -16.6646 -19.2419
rtoes -9.63346
lfemur -23.9394 -5.2852 -25.8851
ltibia 19.7063
lfoot -14.0836 11.6339
ltoes -12.1601
3991
root 0.908294 18.147 -0.0798196 17.8444 1.3105 4.32235
lowerback 10.6178 1.9462 0.753549
upperback -0.778016 2.64827 -0.567236
thorax -6.71892 1.25733 -1.44919
lowerneck 2.10383 -3.02428 -4.38857
upperneck -18.4327 -3.78919 4.26852
head -5.72525 -1.85419 2.28233
rclavicle -4.37326e-015 -3.97569e-015
rhumerus -43.4919 12.7281 -93.3122
rradius 52.925
rwrist 7.63497
rhand -2.42732 -2.52406
rfingers 7.12502
rthumb 23.2635 -31.1388
lclavicle -4.37326e-015 -3.97569e-015
lhumerus -43.2113 -21.729 96.9414
lradius 49.4841
lwrist 14.1218
lhand -4.68964 31.6622
lfingers 7.12502
lthumb 21.0916 60.5351
rfemur -26.6945 5.90727 10.5168
rtibia 26.6114
rfoot -16.7143 -19.2908
rtoes -9.73679
lfemur -23.564 -5.22201 -25.8539
ltibia 19.6155
lfoot -14.1662 11.6009
ltoes -11.9371
3992
root 0.906467 18.1489 -0.0613578 17.5954 1.27444 4.26679
lowerback 10.5034 1.96697 0.759536
upperback -0.805931 2.67807 -0.542108
thorax -6.68377 1.27267 -1.42687
lowerneck 1.95296 -3.03113 -4.38192
upperneck -18.2738 -3.79396 4.26261
head -5.64969 -1.85641 2.27313
rclavicle 4.37326e-015 3.18055e-015
rhumerus -43.4822 12.6725 -93.2453
rradius 52.733
rwrist 7.58765
rhand -2.47956 -2.44882
rfingers 7.12502
rthumb 23.2134 -31.0698
lclavicle 4.37326e-015 3.18055e-015
lhumerus -43.3046 -21.8071 97.0348
lradius 49.3526
lwrist 14.2398
lhand -4.67948 31.6715
lfingers 7.12502
lthumb 21.1013 60.5433
rfemur -26.2916 5.98061 10.6195
rtibia 26.4762
rfoot -16.7202 -19.304
rtoes -9.9849
lfemur -23.1554 -5.22813 -25.8086
ltibia 19.4961
lfoot -14.2136 11.7287
ltoes -12.1938
3993
root 0.904454 18.1504 -0.0417684 17.3441 1.24404 4.23345
lowerback 10.3526 1.97524 0.748394
upperback -0.804345 2.6878 -0.530116
thorax -6.59733 1.27931 -1.40313
lowerneck 1.77705 -3.04451 -4.38526
upperneck -18.1519 -3.80235 4.28568
head -5.58039 -1.86133 2.27515
rclavicle 1.19271e-015 -6.36111e-015
rhumerus -43.4122 12.5884 -93.197
rradius 52.4797
rwrist 7.50436
rhand -2.58357 -2.34995
rfingers 7.12502
rthumb 23.1136 -30.9835
lclavicle 1.19271e-015 -6.36111e-015
lhumerus -43.3194 -21.8403 97.0835
lradius 49.1925
lwrist 14.2943
lhand -4.62442 31.6406
lfingers 7.12502
lthumb 21.1542 60.5065
rfemur -25.8647 6.02468 10.7021
rtibia 26.322
rfoot -16.7233 -19.2544
rtoes -10.0219
lfemur -22.723 -5.26759 -25.7821
ltibia 19.3688
lfoot -14.308 11.8489
ltoes -12.5372
